# xmcd CD database file
#
# Track frame offsets:
#	150
#	28751
#	69658
#	105307
#	138924
#	169898
#	200654
#	229549
#	261555
#	296231
#	324647
#
# Disc length: 4792 seconds
#
# Revision: 2
# Processed by: cddbd v1.5.2PL0 Copyright (c) Steve Scherf et al.
# Submitted via: CDex 1.50
#
DISCID=a812b60b
DTITLE=Fierce Angel - Fierce Disco II [CD2) [FIANCD10]
DYEAR=2008
DGENRE=House
TTITLE0=Wifi Feat. Siobhan - Last Night (Extended Vocal Mix)
TTITLE1=Peyton - A Little Sensitivity (EK's Angelic Mix)
TTITLE2=Avalon Superstar Feat. Rita Campbell - What I Find (Bassmonkeys Remix)
TTITLE3=Loveless Feat. Amanda Wilson - Found A Miracle (Simmonds and Christopher Mix)
TTITLE4=Noferini Feat. Peyton - Till You Come Back To Me (Hernandez vs. DJ Tyo Remix)
TTITLE5=Liquid Nation Feat. Andrea Britton - Breathe Life (Club Mix)
TTITLE6=Robbie Rivera - One Eye Shut (E-Squire Mix)
TTITLE7=K-Klass Feat. Bobbi - Getting Ready (12" Mix)
TTITLE8=Marco Denmark Feat. Casey Barnes - Tiny Dancer (Moto Blanco Mix)
TTITLE9=Cahill - Trippin On You (Extended Mix)
TTITLE10=Bassmonkeys Feat. Naomi Marsh - Here's Where The Story Ends (Extended 12" Mix)
EXTD=YEAR: 2008
EXTT0=
EXTT1=
EXTT2=
EXTT3=
EXTT4=
EXTT5=
EXTT6=
EXTT7=
EXTT8=
EXTT9=
EXTT10=
PLAYORDER=
